<svg width="207" height="52" viewBox="0 0 207 52" fill="none" xmlns="http://www.w3.org/2000/svg">
<path fill-rule="evenodd" clip-rule="evenodd" d="M53.5 0C52.9477 0 52.5 0.447716 52.5 1V51C52.5 51.5523 52.9477 52 53.5 52C54.0523 52 54.5 51.5523 54.5 51V1C54.5 0.447715 54.0523 0 53.5 0ZM48.5 5C48.5 4.44771 48.9477 4 49.5 4C50.0523 4 50.5 4.44772 50.5 5V47C50.5 47.5523 50.0523 48 49.5 48C48.9477 48 48.5 47.5523 48.5 47V5ZM1.5 6C0.947715 6 0.5 6.44771 0.5 7V45C0.5 45.5523 0.947715 46 1.5 46C2.05228 46 2.5 45.5523 2.5 45V7C2.5 6.44772 2.05228 6 1.5 6ZM5.5 10C4.94772 10 4.5 10.4477 4.5 11V41C4.5 41.5523 4.94772 42 5.5 42C6.05228 42 6.5 41.5523 6.5 41V11C6.5 10.4477 6.05228 10 5.5 10ZM8.5 13C8.5 12.4477 8.94771 12 9.5 12C10.0523 12 10.5 12.4477 10.5 13V39C10.5 39.5523 10.0523 40 9.5 40C8.94771 40 8.5 39.5523 8.5 39V13ZM13.5 12C12.9477 12 12.5 12.4477 12.5 13V39C12.5 39.5523 12.9477 40 13.5 40C14.0523 40 14.5 39.5523 14.5 39V13C14.5 12.4477 14.0523 12 13.5 12ZM16.5 17C16.5 16.4477 16.9477 16 17.5 16C18.0523 16 18.5 16.4477 18.5 17V35C18.5 35.5523 18.0523 36 17.5 36C16.9477 36 16.5 35.5523 16.5 35V17ZM21.5 20C20.9477 20 20.5 20.4477 20.5 21V31C20.5 31.5523 20.9477 32 21.5 32C22.0523 32 22.5 31.5523 22.5 31V21C22.5 20.4477 22.0523 20 21.5 20ZM24.5 18C24.5 17.4477 24.9477 17 25.5 17C26.0523 17 26.5 17.4477 26.5 18V34C26.5 34.5523 26.0523 35 25.5 35C24.9477 35 24.5 34.5523 24.5 34V18ZM29.5 18C28.9477 18 28.5 18.4477 28.5 19V33C28.5 33.5523 28.9477 34 29.5 34C30.0523 34 30.5 33.5523 30.5 33V19C30.5 18.4477 30.0523 18 29.5 18ZM32.5 19C32.5 18.4477 32.9477 18 33.5 18C34.0523 18 34.5 18.4477 34.5 19V33C34.5 33.5523 34.0523 34 33.5 34C32.9477 34 32.5 33.5523 32.5 33V19ZM37.5 19C36.9477 19 36.5 19.4477 36.5 20V32C36.5 32.5523 36.9477 33 37.5 33C38.0523 33 38.5 32.5523 38.5 32V20C38.5 19.4477 38.0523 19 37.5 19ZM40.5 13C40.5 12.4477 40.9477 12 41.5 12C42.0523 12 42.5 12.4477 42.5 13V39C42.5 39.5523 42.0523 40 41.5 40C40.9477 40 40.5 39.5523 40.5 39V13ZM45.5 7C44.9477 7 44.5 7.44772 44.5 8V44C44.5 44.5523 44.9477 45 45.5 45C46.0523 45 46.5 44.5523 46.5 44V8C46.5 7.44772 46.0523 7 45.5 7ZM56.5 8C56.5 7.44772 56.9477 7 57.5 7C58.0523 7 58.5 7.44772 58.5 8V44C58.5 44.5523 58.0523 45 57.5 45C56.9477 45 56.5 44.5523 56.5 44V8ZM61.5 14C60.9477 14 60.5 14.4477 60.5 15V37C60.5 37.5523 60.9477 38 61.5 38C62.0523 38 62.5 37.5523 62.5 37V15C62.5 14.4477 62.0523 14 61.5 14ZM64.5 24C64.5 23.4477 64.9477 23 65.5 23C66.0523 23 66.5 23.4477 66.5 24V28C66.5 28.5523 66.0523 29 65.5 29C64.9477 29 64.5 28.5523 64.5 28V24ZM69.5 16C68.9477 16 68.5 16.4477 68.5 17V35C68.5 35.5523 68.9477 36 69.5 36C70.0523 36 70.5 35.5523 70.5 35V17C70.5 16.4477 70.0523 16 69.5 16ZM72.5 9C72.5 8.44772 72.9477 8 73.5 8C74.0523 8 74.5 8.44772 74.5 9V43C74.5 43.5523 74.0523 44 73.5 44C72.9477 44 72.5 43.5523 72.5 43V9ZM77.5 6C76.9477 6 76.5 6.44771 76.5 7V45C76.5 45.5523 76.9477 46 77.5 46C78.0523 46 78.5 45.5523 78.5 45V7C78.5 6.44772 78.0523 6 77.5 6ZM80.5 13C80.5 12.4477 80.9477 12 81.5 12C82.0523 12 82.5 12.4477 82.5 13V39C82.5 39.5523 82.0523 40 81.5 40C80.9477 40 80.5 39.5523 80.5 39V13ZM85.5 10C84.9477 10 84.5 10.4477 84.5 11V41C84.5 41.5523 84.9477 42 85.5 42C86.0523 42 86.5 41.5523 86.5 41V11C86.5 10.4477 86.0523 10 85.5 10ZM88.5 11C88.5 10.4477 88.9477 10 89.5 10C90.0523 10 90.5 10.4477 90.5 11V41C90.5 41.5523 90.0523 42 89.5 42C88.9477 42 88.5 41.5523 88.5 41V11ZM93.5 16C92.9477 16 92.5 16.4477 92.5 17V35C92.5 35.5523 92.9477 36 93.5 36C94.0523 36 94.5 35.5523 94.5 35V17C94.5 16.4477 94.0523 16 93.5 16ZM96.5 23C96.5 22.4477 96.9477 22 97.5 22C98.0523 22 98.5 22.4477 98.5 23V29C98.5 29.5523 98.0523 30 97.5 30C96.9477 30 96.5 29.5523 96.5 29V23ZM101.5 24C100.948 24 100.5 24.4477 100.5 25V27C100.5 27.5523 100.948 28 101.5 28C102.052 28 102.5 27.5523 102.5 27V25C102.5 24.4477 102.052 24 101.5 24ZM104.5 22C104.5 21.4477 104.948 21 105.5 21C106.052 21 106.5 21.4477 106.5 22V30C106.5 30.5523 106.052 31 105.5 31C104.948 31 104.5 30.5523 104.5 30V22ZM109.5 18C108.948 18 108.5 18.4477 108.5 19V33C108.5 33.5523 108.948 34 109.5 34C110.052 34 110.5 33.5523 110.5 33V19C110.5 18.4477 110.052 18 109.5 18ZM112.5 17C112.5 16.4477 112.948 16 113.5 16C114.052 16 114.5 16.4477 114.5 17V35C114.5 35.5523 114.052 36 113.5 36C112.948 36 112.5 35.5523 112.5 35V17ZM117.5 18C116.948 18 116.5 18.4477 116.5 19V33C116.5 33.5523 116.948 34 117.5 34C118.052 34 118.5 33.5523 118.5 33V19C118.5 18.4477 118.052 18 117.5 18ZM120.5 17C120.5 16.4477 120.948 16 121.5 16C122.052 16 122.5 16.4477 122.5 17V35C122.5 35.5523 122.052 36 121.5 36C120.948 36 120.5 35.5523 120.5 35V17ZM125.5 19C124.948 19 124.5 19.4477 124.5 20V32C124.5 32.5523 124.948 33 125.5 33C126.052 33 126.5 32.5523 126.5 32V20C126.5 19.4477 126.052 19 125.5 19ZM128.5 13C128.5 12.4477 128.948 12 129.5 12C130.052 12 130.5 12.4477 130.5 13V39C130.5 39.5523 130.052 40 129.5 40C128.948 40 128.5 39.5523 128.5 39V13ZM133.5 17C132.948 17 132.5 17.4477 132.5 18V34C132.5 34.5523 132.948 35 133.5 35C134.052 35 134.5 34.5523 134.5 34V18C134.5 17.4477 134.052 17 133.5 17ZM136.5 12C136.5 11.4477 136.948 11 137.5 11C138.052 11 138.5 11.4477 138.5 12V40C138.5 40.5523 138.052 41 137.5 41C136.948 41 136.5 40.5523 136.5 40V12ZM141.5 13C140.948 13 140.5 13.4477 140.5 14V38C140.5 38.5523 140.948 39 141.5 39C142.052 39 142.5 38.5523 142.5 38V14C142.5 13.4477 142.052 13 141.5 13ZM144.5 17C144.5 16.4477 144.948 16 145.5 16C146.052 16 146.5 16.4477 146.5 17V35C146.5 35.5523 146.052 36 145.5 36C144.948 36 144.5 35.5523 144.5 35V17ZM149.5 22C148.948 22 148.5 22.4477 148.5 23V29C148.5 29.5523 148.948 30 149.5 30C150.052 30 150.5 29.5523 150.5 29V23C150.5 22.4477 150.052 22 149.5 22ZM152.5 25C152.5 24.4477 152.948 24 153.5 24C154.052 24 154.5 24.4477 154.5 25V27C154.5 27.5523 154.052 28 153.5 28C152.948 28 152.5 27.5523 152.5 27V25ZM157.5 22C156.948 22 156.5 22.4477 156.5 23V29C156.5 29.5523 156.948 30 157.5 30C158.052 30 158.5 29.5523 158.5 29V23C158.5 22.4477 158.052 22 157.5 22ZM160.5 20C160.5 19.4477 160.948 19 161.5 19C162.052 19 162.5 19.4477 162.5 20V32C162.5 32.5523 162.052 33 161.5 33C160.948 33 160.5 32.5523 160.5 32V20ZM165.5 17C164.948 17 164.5 17.4477 164.5 18V34C164.5 34.5523 164.948 35 165.5 35C166.052 35 166.5 34.5523 166.5 34V18C166.5 17.4477 166.052 17 165.5 17ZM168.5 20C168.5 19.4477 168.948 19 169.5 19C170.052 19 170.5 19.4477 170.5 20V32C170.5 32.5523 170.052 33 169.5 33C168.948 33 168.5 32.5523 168.5 32V20ZM173.5 21C172.948 21 172.5 21.4477 172.5 22V30C172.5 30.5523 172.948 31 173.5 31C174.052 31 174.5 30.5523 174.5 30V22C174.5 21.4477 174.052 21 173.5 21ZM176.5 21C176.5 20.4477 176.948 20 177.5 20C178.052 20 178.5 20.4477 178.5 21V31C178.5 31.5523 178.052 32 177.5 32C176.948 32 176.5 31.5523 176.5 31V21ZM181.5 17C180.948 17 180.5 17.4477 180.5 18V34C180.5 34.5523 180.948 35 181.5 35C182.052 35 182.5 34.5523 182.5 34V18C182.5 17.4477 182.052 17 181.5 17ZM184.5 21C184.5 20.4477 184.948 20 185.5 20C186.052 20 186.5 20.4477 186.5 21V31C186.5 31.5523 186.052 32 185.5 32C184.948 32 184.5 31.5523 184.5 31V21ZM189.5 17C188.948 17 188.5 17.4477 188.5 18V34C188.5 34.5523 188.948 35 189.5 35C190.052 35 190.5 34.5523 190.5 34V18C190.5 17.4477 190.052 17 189.5 17ZM192.5 19C192.5 18.4477 192.948 18 193.5 18C194.052 18 194.5 18.4477 194.5 19V33C194.5 33.5523 194.052 34 193.5 34C192.948 34 192.5 33.5523 192.5 33V19ZM197.5 20C196.948 20 196.5 20.4477 196.5 21V31C196.5 31.5523 196.948 32 197.5 32C198.052 32 198.5 31.5523 198.5 31V21C198.5 20.4477 198.052 20 197.5 20ZM200.5 23C200.5 22.4477 200.948 22 201.5 22C202.052 22 202.5 22.4477 202.5 23V29C202.5 29.5523 202.052 30 201.5 30C200.948 30 200.5 29.5523 200.5 29V23ZM205.5 24C204.948 24 204.5 24.4477 204.5 25V27C204.5 27.5523 204.948 28 205.5 28C206.052 28 206.5 27.5523 206.5 27V25C206.5 24.4477 206.052 24 205.5 24Z" fill="url(#paint0_linear_2160_1172)"/>
<defs>
<linearGradient id="paint0_linear_2160_1172" x1="0.5" y1="26" x2="206.5" y2="26" gradientUnits="userSpaceOnUse">
<stop stop-color="#FC4A1A"/>
<stop offset="1" stop-color="#F7B733"/>
</linearGradient>
</defs>
</svg>
